<svg width="100" height="100" viewBox="0 0 100 100" fill="none" xmlns="http://www.w3.org/2000/svg">
<g id="Frame 1">
<rect width="100" height="100" fill="white"/>
<path id="Volume" d="M48.7891 23.4121C50.1056 22.4103 51.9997 23.3487 52 25.0029V74.9609C51.9997 76.6159 50.1034 77.554 48.7871 76.5508L30 62.2304V37.707L48.7891 23.4121ZM28 62H17C15.8955 62 15.0001 61.1044 15 60V40C15 38.8954 15.8954 38 17 38H28V62Z" fill="#2A2626"/>
<path id="HighVolume" d="M58 73C70.6176 73 80 62.7025 80 50C80 37.2975 70.6176 27 58 27" stroke="#2A2626" stroke-width="8"/>
<path id="LowVolume" d="M58 59C63.1617 59 67 54.9706 67 50C67 45.0294 63.1617 41 58 41" stroke="#2A2626" stroke-width="8"/>
</g>
</svg>
