<svg width="200" height="50" viewBox="0 0 200 50" fill="none" xmlns="http://www.w3.org/2000/svg">
<g clip-path="url(#clip0_86_13463)">
<rect width="200" height="50" fill="#FF5252"/>
<path d="M129.765 15.58C126.987 15.6041 124.298 17.2254 122.382 19.8957C120.465 22.5656 119.79 25.6298 120.655 28.2695L107.294 16.9367C107.059 16.7376 106.874 16.4872 106.752 16.2049L106.049 14.5805C105.771 13.9357 105.851 13.192 106.261 12.6214L108.135 10.0105C107.169 8.67393 106.366 8.08807 105.735 7.93037C105.006 7.74874 104.327 8.11063 103.65 8.99703C102.978 9.87783 102.417 11.1487 101.957 12.4299C101.495 13.7122 101.158 14.9293 100.898 15.743C100.814 16.006 100.533 16.1513 100.27 16.0673C100.007 15.9832 99.8619 15.7018 99.9456 15.439C100.188 14.6797 100.547 13.3925 101.015 12.0919C101.483 10.7903 102.085 9.39831 102.855 8.39009C103.62 7.38757 104.664 6.6327 105.978 6.96042C106.872 7.1839 107.787 7.89545 108.748 9.15689L110.333 6.94906C110.742 6.37856 111.421 6.06445 112.121 6.12203L113.885 6.26682C114.192 6.29212 114.489 6.38792 114.752 6.54641L117.837 8.40282C118.473 7.56529 119.074 6.78066 119.603 6.13025C120.158 5.44818 120.657 4.88086 121.044 4.55565C121.255 4.37794 121.571 4.40554 121.749 4.6169C121.926 4.82826 121.898 5.14288 121.687 5.32049C121.382 5.57738 120.936 6.0759 120.379 6.76144C119.879 7.37615 119.31 8.11766 118.7 8.92104L129.765 15.58ZM108.821 20.2736C108.148 20.8393 107.052 21.824 105.877 22.7488C104.705 23.6708 103.386 24.5894 102.222 25.0216C101.642 25.2372 101.04 25.3548 100.49 25.2389C99.9049 25.1154 99.4453 24.7415 99.1647 24.1263C98.8967 23.5385 98.793 22.7382 98.8397 21.7172C98.8867 20.6881 99.0895 19.39 99.4744 17.7767C99.5386 17.5082 99.8084 17.3421 100.077 17.4062C100.345 17.4705 100.51 17.7398 100.447 18.0082C100.07 19.5867 99.8819 20.8183 99.8387 21.7623C99.7952 22.7139 99.9017 23.3311 100.075 23.7109C100.236 24.0634 100.449 24.2087 100.697 24.2609C100.98 24.3203 101.371 24.2712 101.874 24.0843C102.88 23.7109 104.094 22.8797 105.259 21.9629C106.42 21.0491 107.465 20.1058 108.177 19.5074C108.389 19.33 108.703 19.3576 108.881 19.5689C109.058 19.7802 109.032 20.0959 108.821 20.2736ZM133.144 27.6212C131.036 30.5578 126.893 35.04 126.647 35.6883C126.327 35.5062 126.012 35.3064 125.705 35.0865C121.038 31.7361 119.971 25.2373 123.321 20.5699C126.671 15.9029 133.171 14.8345 137.838 18.1847C138.144 18.4045 138.435 18.6384 138.71 18.884C138.446 19.0987 137.591 20.5284 136.541 22.2746C136.173 21.9847 135.816 21.7136 135.479 21.4714C132.371 19.2405 128.466 18.3725 128.365 18.4986C128.273 18.6271 131.856 19.9495 134.968 22.183C135.322 22.4371 135.702 22.7163 136.097 23.0116C135.755 23.5769 135.398 24.1605 135.041 24.7358C134.613 24.3948 134.198 24.0776 133.808 23.7983C130.702 21.5688 128.545 21.232 128.445 21.3587C128.353 21.4872 130.186 22.2764 133.298 24.5099C133.7 24.7985 134.135 25.1201 134.588 25.4602C134.091 26.2441 133.598 26.9888 133.144 27.6212ZM138.72 24.0915C138.141 23.5858 137.551 23.0866 136.979 22.6239C137.969 20.8534 138.717 19.3511 138.787 18.956C139.359 19.477 139.861 20.0506 140.292 20.6648C140.032 20.6091 139.479 22.1607 138.72 24.0915ZM135.997 29.6696C133.865 32.6398 128.578 36.164 128.841 36.617C128.121 36.4056 127.417 36.1133 126.74 35.7381C127.455 35.3439 131.556 30.9014 133.65 27.9845C134.101 27.3559 134.59 26.6158 135.081 25.8342C135.792 26.374 136.532 26.9483 137.249 27.506C136.856 28.3065 136.438 29.0563 135.997 29.6696ZM137.555 26.8651C136.888 26.2723 136.194 25.6748 135.52 25.1231C135.876 24.5388 136.228 23.9425 136.56 23.3623C137.172 23.8247 137.809 24.3169 138.437 24.8042C138.164 25.4805 137.869 26.1834 137.555 26.8651ZM142.155 27.2725C141.409 26.5368 140.359 25.5439 139.23 24.5403C139.988 22.736 140.466 21.1892 140.369 20.7718C141.677 22.6908 142.293 24.9881 142.155 27.2725ZM140.223 32.7026C137.603 36.3524 133.057 37.8005 128.967 36.6564C129.833 36.5676 134.298 32.7969 136.358 29.9281C136.795 29.3195 137.235 28.5941 137.656 27.8226C139.329 29.128 140.808 30.2917 141.361 30.6696C141.064 31.3731 140.687 32.0561 140.223 32.7026ZM141.411 30.5494C140.932 30.0101 139.559 28.6674 137.97 27.2364C138.318 26.5655 138.647 25.872 138.945 25.1994C140.167 26.1506 141.318 27.0511 142.123 27.6676C142.026 28.6448 141.791 29.6156 141.411 30.5494Z" fill="#690606" fill-opacity="0.2"/>
<path d="M177.916 38.7572C178.046 41.5326 179.769 44.1567 182.511 45.9701C185.252 47.7829 188.34 48.3405 190.945 47.3749L180.132 61.1601C179.942 61.4021 179.699 61.5972 179.421 61.7299L177.825 62.4936C177.191 62.7967 176.445 62.7447 175.859 62.3573L173.178 60.5845C171.88 61.6011 171.325 62.4253 171.192 63.0628C171.038 63.798 171.426 64.4625 172.337 65.1049C173.243 65.743 174.534 66.2544 175.832 66.6659C177.131 67.0777 178.36 67.3678 179.184 67.5966C179.45 67.6705 179.606 67.946 179.532 68.212C179.458 68.4777 179.182 68.6337 178.916 68.5602C178.148 68.3467 176.848 68.0372 175.531 67.6196C174.212 67.2016 172.798 66.6533 171.761 65.9228C170.73 65.1963 169.936 64.1821 170.213 62.8571C170.402 61.9544 171.078 61.0129 172.302 60.0049L170.035 58.5057C169.449 58.1182 169.109 57.4517 169.14 56.7501L169.217 54.9817C169.231 54.6745 169.315 54.3742 169.463 54.1048L171.2 50.9508C170.339 50.3477 169.532 49.7767 168.862 49.2732C168.159 48.7451 167.573 48.268 167.233 47.8941C167.048 47.6896 167.063 47.3729 167.268 47.1873C167.472 47.0019 167.787 47.0175 167.973 47.2218C168.241 47.5172 168.757 47.9433 169.463 48.4741C170.096 48.95 170.859 49.49 171.685 50.0691L177.916 38.7572ZM183.408 59.5063C183.999 60.157 185.025 61.2147 185.994 62.3534C186.96 63.4889 187.928 64.7722 188.405 65.9184C188.642 66.4903 188.783 67.0869 188.688 67.6408C188.587 68.2304 188.231 68.704 187.627 69.0079C187.05 69.2982 186.254 69.4325 185.232 69.4249C184.202 69.4173 182.897 69.2643 181.27 68.9415C180.999 68.8877 180.823 68.6244 180.877 68.3536C180.931 68.0831 181.194 67.9076 181.464 67.9611C183.056 68.277 184.294 68.4179 185.239 68.4249C186.192 68.432 186.804 68.3019 187.177 68.1144C187.523 67.9403 187.66 67.721 187.703 67.4716C187.752 67.1869 187.687 66.7975 187.481 66.3018C187.07 65.3114 186.193 64.1296 185.232 63.0006C184.274 61.8754 183.292 60.8672 182.667 60.1789C182.481 59.9745 182.497 59.6591 182.701 59.4735C182.905 59.2879 183.222 59.3022 183.408 59.5063ZM189.819 34.9199C192.834 36.914 197.471 40.882 198.129 41.1028C197.959 41.4302 197.771 41.7527 197.563 42.0672C194.394 46.8592 187.941 48.1747 183.149 45.0056C178.357 41.8363 177.04 35.3825 180.21 30.5904C180.417 30.276 180.64 29.9765 180.875 29.6922C181.1 29.948 182.561 30.7473 184.346 31.7303C184.071 32.109 183.813 32.4758 183.584 32.8222C181.474 36.0133 180.756 39.9487 180.886 40.0447C181.018 40.132 182.202 36.5002 184.315 33.3054C184.555 32.9419 184.82 32.5514 185.1 32.1454C185.678 32.4652 186.274 32.7995 186.863 33.1348C186.539 33.5757 186.237 34.0026 185.973 34.4022C183.864 37.5912 183.61 39.7601 183.741 39.8546C183.873 39.9418 184.591 38.0801 186.704 34.8854C186.977 34.4725 187.282 34.0253 187.604 33.5595C188.406 34.0264 189.169 34.4905 189.819 34.9199ZM186.078 29.4829C185.595 30.0808 185.119 30.6901 184.678 31.2792C182.871 30.3572 181.341 29.6675 180.944 29.6126C181.443 29.0213 181.997 28.4974 182.594 28.0437C182.548 28.3055 184.12 28.7982 186.078 29.4829ZM191.756 31.99C194.806 34.007 198.53 39.1556 198.973 38.8757C198.789 39.603 198.524 40.3176 198.175 41.0081C197.754 40.3092 193.157 36.3809 190.162 34.4002C189.517 33.9734 188.759 33.513 187.959 33.053C188.471 32.3214 189.017 31.5597 189.547 30.8224C190.362 31.1847 191.127 31.5736 191.756 31.99ZM188.894 30.541C188.328 31.2303 187.757 31.9464 187.232 32.6411C186.634 32.3074 186.025 31.9793 185.432 31.6689C185.871 31.0398 186.338 30.385 186.801 29.7386C187.488 29.9851 188.201 30.2532 188.894 30.541ZM189.125 25.9286C188.419 26.7025 187.467 27.7895 186.507 28.9564C184.675 28.2677 183.111 27.8494 182.698 27.9626C184.565 26.5813 186.837 25.8783 189.125 25.9286ZM194.626 27.6517C198.373 30.1302 199.994 34.6173 199.007 38.7475C198.885 37.8861 194.946 33.5682 192.001 31.6202C191.376 31.2069 190.634 30.7948 189.847 30.4031C191.088 28.6812 192.194 27.1596 192.55 26.592C193.265 26.8615 193.962 27.2128 194.626 27.6517ZM192.428 26.5464C191.908 27.0462 190.619 28.4693 189.25 30.112C188.566 29.7897 187.86 29.4873 187.177 29.2153C188.08 27.958 188.936 26.7732 189.522 25.9458C190.502 26.0048 191.481 26.2024 192.428 26.5464Z" fill="#690606" fill-opacity="0.2"/>
<path d="M36.649 11.6484C35.228 9.2608 32.473 7.75595 29.2005 7.4459C25.9287 7.13605 22.9416 8.09691 21.0976 10.1744L24.153 -7.0772C24.2067 -7.38006 24.3294 -7.66662 24.5118 -7.91428L25.561 -9.33927C25.9776 -9.90485 26.6605 -10.2101 27.3598 -10.1439L30.5593 -9.84089C31.2269 -11.3489 31.3286 -12.3372 31.1463 -12.9625C30.9359 -13.6836 30.2813 -14.0875 29.1746 -14.2254C28.075 -14.3623 26.6949 -14.2059 25.356 -13.9583C24.016 -13.7104 22.7949 -13.3882 21.9611 -13.2028C21.6915 -13.1429 21.4243 -13.3125 21.3643 -13.582C21.3046 -13.8513 21.4744 -14.1186 21.7436 -14.1788C22.5216 -14.3518 23.8144 -14.6904 25.1736 -14.9418C26.5337 -15.1933 28.0394 -15.3748 29.2981 -15.2182C30.5497 -15.0622 31.7278 -14.541 32.1066 -13.2414C32.3645 -12.3559 32.211 -11.2071 31.6054 -9.7418L34.3111 -9.48552C35.0103 -9.41919 35.6237 -8.99105 35.9268 -8.35744L36.6907 -6.76071C36.8233 -6.48328 36.8902 -6.17858 36.886 -5.87114L36.8373 -2.27082C37.8811 -2.1438 38.8619 -2.01977 39.6902 -1.89074C40.5588 -1.75541 41.3004 -1.61019 41.7761 -1.44008C42.0361 -1.34707 42.1715 -1.06033 42.0785 -0.800321C41.9853 -0.540601 41.6996 -0.405899 41.4398 -0.498853C41.0639 -0.633266 40.4088 -0.766844 39.5358 -0.902849C38.753 -1.0248 37.8258 -1.14242 36.8244 -1.26463L36.649 11.6484ZM22.0403 -4.07653C21.2127 -4.37257 19.8097 -4.82316 18.4188 -5.37204C17.032 -5.91932 15.5737 -6.59604 14.614 -7.38334C14.1352 -7.77616 13.7305 -8.23648 13.5534 -8.76979C13.3652 -9.33756 13.4565 -9.92301 13.8464 -10.4753C14.2191 -11.0031 14.8581 -11.496 15.7635 -11.9702C16.6761 -12.4482 17.8995 -12.9271 19.487 -13.4077C19.7512 -13.4876 20.0306 -13.3382 20.1106 -13.074C20.1902 -12.8099 20.0409 -12.5314 19.777 -12.4513C18.2238 -11.9811 17.0651 -11.523 16.228 -11.0845C15.3841 -10.6426 14.9047 -10.2395 14.6639 -9.89863C14.4404 -9.58213 14.4227 -9.32422 14.5024 -9.08406C14.5935 -8.80995 14.8333 -8.49652 15.2482 -8.15607C16.0775 -7.47583 17.4075 -6.84563 18.7864 -6.30148C20.1608 -5.75912 21.5022 -5.33181 22.3777 -5.01863C22.6375 -4.92551 22.7721 -4.63983 22.6792 -4.37994C22.5862 -4.12004 22.3002 -3.98372 22.0403 -4.07653ZM27.9513 20.6349C24.3525 20.294 18.3934 18.9747 17.7096 19.089C17.7053 18.7203 17.719 18.3475 17.7546 17.9721C18.2965 12.2525 23.3719 8.0554 29.0915 8.597C34.811 9.13895 39.0091 14.2144 38.4676 19.934C38.432 20.3093 38.3765 20.6783 38.303 21.0396C37.9844 20.9197 36.3187 20.9019 34.2811 20.8745C34.3461 20.4106 34.4005 19.9659 34.4397 19.5525C34.8004 15.7437 33.5822 11.9334 33.4224 11.9098C33.2649 11.8949 33.9287 15.6568 33.5676 19.4699C33.5265 19.9037 33.477 20.3727 33.421 20.8626C32.7604 20.8524 32.0766 20.8383 31.3995 20.8193C31.4782 20.2777 31.543 19.7593 31.5882 19.2824C31.9487 15.4761 31.1522 13.4429 30.9928 13.4208C30.8352 13.4059 31.0773 15.3868 30.7161 19.1998C30.6694 19.6926 30.611 20.2305 30.5456 20.7933C29.6179 20.7588 28.7263 20.7083 27.9513 20.6349ZM33.8101 23.6726C33.9551 22.9176 34.0887 22.156 34.2002 21.4289C36.2285 21.3921 37.903 21.281 38.2795 21.1423C38.1177 21.8988 37.8754 22.6217 37.5618 23.3031C37.479 23.0506 35.8604 23.3552 33.8101 23.6726ZM27.62 24.132C23.98 23.7871 18.2715 20.9961 18.0126 21.4514C17.8325 20.7232 17.7303 19.9679 17.7134 19.1943C18.4139 19.6128 24.3179 20.9166 27.8925 21.2552C28.6629 21.3281 29.5486 21.3776 30.4707 21.4072C30.3631 22.2938 30.2401 23.2226 30.1194 24.1225C29.2298 24.1863 28.3715 24.2031 27.62 24.132ZM30.8273 24.064C31.0031 23.189 31.1696 22.2886 31.3064 21.4285C31.9907 21.4417 32.6827 21.4446 33.3516 21.4397C33.2605 22.2012 33.1561 22.999 33.0518 23.7871C32.3303 23.8925 31.5744 23.9918 30.8273 24.064ZM32.7936 28.2426C33.053 27.2272 33.3816 25.8201 33.6793 24.339C35.6199 24.0847 37.1967 23.7179 37.5082 23.4235C36.5102 25.5211 34.8362 27.2104 32.7936 28.2426ZM27.1296 29.31C22.6568 28.8862 19.1152 25.6895 18.0425 21.5807C18.5553 22.2835 24.0626 24.2403 27.5782 24.5733C28.3241 24.644 29.1725 24.6587 30.0513 24.634C29.7669 26.737 29.5067 28.6001 29.4593 29.2687C28.7021 29.367 27.9218 29.385 27.1296 29.31ZM29.5884 29.2515C29.8126 28.5656 30.2805 26.7033 30.7158 24.6096C31.4707 24.5722 32.2356 24.5071 32.9668 24.4255C32.7608 25.9601 32.5631 27.4083 32.436 28.4138C31.5433 28.8229 30.5865 29.1091 29.5884 29.2515Z" fill="#690606" fill-opacity="0.2"/>
<path d="M162.128 9.95451C164.89 9.65595 167.405 7.77696 169.049 4.93026C170.692 2.08403 171.061 -1.03196 169.939 -3.57326L184.355 6.38364C184.608 6.55849 184.818 6.78934 184.967 7.05827L185.826 8.60527C186.167 9.21943 186.161 9.96736 185.809 10.5757L184.203 13.359C185.296 14.5936 186.152 15.0973 186.797 15.1917C187.54 15.3004 188.18 14.8732 188.766 13.9243C189.348 12.9814 189.78 11.6613 190.112 10.3409C190.444 9.01921 190.659 7.77481 190.837 6.93941C190.895 6.66938 191.161 6.49693 191.431 6.55456C191.7 6.6123 191.873 6.87799 191.815 7.14775C191.649 7.92727 191.419 9.24369 191.082 10.5842C190.745 11.9257 190.283 13.3703 189.617 14.4497C188.954 15.5229 187.99 16.3773 186.651 16.181C185.738 16.047 184.758 15.4294 183.677 14.269L182.318 16.6227C181.967 17.2309 181.322 17.6105 180.62 17.6224L178.85 17.6527C178.543 17.6578 178.238 17.5918 177.96 17.4601L174.707 15.9177C174.157 16.814 173.636 17.6542 173.174 18.3537C172.689 19.0873 172.249 19.7011 171.896 20.063C171.703 20.2607 171.386 20.2645 171.189 20.0717C170.991 19.8789 170.988 19.5631 171.18 19.3655C171.459 19.0796 171.853 18.5395 172.34 17.8023C172.777 17.1412 173.269 16.3471 173.797 15.4873L162.128 9.95451ZM182.506 3.21394C183.119 2.58455 184.113 1.49628 185.191 0.459919C186.265 -0.573369 187.488 -1.61787 188.603 -2.16295C189.159 -2.43485 189.746 -2.61133 190.305 -2.55038C190.9 -2.48533 191.394 -2.15871 191.734 -1.57426C192.059 -1.01577 192.241 -0.22962 192.295 0.790984C192.35 1.81972 192.277 3.1315 192.053 4.77492C192.016 5.04848 191.764 5.24037 191.49 5.20315C191.217 5.16569 191.026 4.91398 191.063 4.64066C191.282 3.03266 191.347 1.78843 191.297 0.8448C191.246 -0.106464 191.079 -0.710043 190.869 -1.07094C190.674 -1.40584 190.447 -1.52925 190.196 -1.55676C189.909 -1.58792 189.524 -1.50033 189.042 -1.26465C188.078 -0.793675 186.952 0.153518 185.883 1.18093C184.818 2.20502 183.871 3.24698 183.222 3.91277C183.029 4.11025 182.713 4.1138 182.516 3.92114C182.318 3.72844 182.313 3.41168 182.506 3.21394ZM157.576 -1.69377C159.383 -4.82432 163.062 -9.69401 163.243 -10.3634C163.58 -10.2139 163.913 -10.0463 164.24 -9.85773C169.215 -6.985 170.92 -0.62344 168.047 4.35213C165.175 9.32749 158.813 11.033 153.837 8.1605C153.511 7.972 153.198 7.76797 152.9 7.5508C153.142 7.311 153.851 5.8038 154.724 3.96237C155.119 4.21443 155.5 4.44899 155.86 4.65665C159.173 6.56949 163.145 7.04729 163.233 6.91183C163.312 6.77481 159.615 5.81308 156.298 3.89803C155.921 3.68015 155.515 3.43997 155.093 3.18515C155.377 2.58877 155.674 1.97279 155.973 1.36499C156.433 1.66197 156.877 1.93661 157.292 2.17613C160.603 4.08773 162.784 4.2096 162.87 4.07374C162.949 3.93672 161.047 3.33254 157.73 1.41751C157.302 1.17002 156.837 0.893045 156.352 0.599327C156.77 -0.229833 157.186 -1.0196 157.576 -1.69377ZM152.376 2.36972C153.002 2.81571 153.639 3.25414 154.254 3.65806C153.443 5.51773 152.847 7.08662 152.817 7.48672C152.196 7.02476 151.64 6.50364 151.15 5.93503C151.415 5.96474 151.811 4.36615 152.376 2.36972ZM154.534 -3.45011C156.362 -6.6165 161.275 -10.646 160.969 -11.0709C161.706 -10.9317 162.435 -10.7103 163.146 -10.4038C162.474 -9.94093 158.831 -5.11486 157.036 -2.00529C156.649 -1.33515 156.236 -0.550332 155.825 0.275867C155.064 -0.190959 154.27 -0.689266 153.502 -1.17349C153.814 -2.00891 154.156 -2.79638 154.534 -3.45011ZM153.261 -0.505445C153.983 0.0185146 154.733 0.544594 155.458 1.02693C155.161 1.64358 154.871 2.27168 154.597 2.88194C153.942 2.4823 153.26 2.05533 152.587 1.63251C152.791 0.932571 153.016 0.203957 153.261 -0.505445ZM148.643 -0.456237C149.458 0.202188 150.601 1.08646 151.824 1.97348C151.248 3.84393 150.925 5.43042 151.063 5.83616C149.571 4.05583 148.732 1.83063 148.643 -0.456237ZM150.029 -6.0507C152.276 -9.94154 156.656 -11.8318 160.839 -11.0975C159.986 -10.9236 155.915 -6.73001 154.15 -3.67179C153.775 -3.02294 153.409 -2.25764 153.065 -1.44821C151.272 -2.58191 149.686 -3.59379 149.097 -3.91511C149.323 -4.64453 149.631 -5.36152 150.029 -6.0507ZM149.059 -3.79052C149.59 -3.30126 151.088 -2.10086 152.811 -0.83389C152.531 -0.131823 152.272 0.590822 152.042 1.28959C150.732 0.463747 149.498 -0.318608 148.636 -0.852601C148.636 -1.83454 148.773 -2.82374 149.059 -3.79052Z" fill="#690606" fill-opacity="0.2"/>
<path d="M35.7891 43.6449C33.0107 43.669 30.3225 45.2902 28.4056 47.9605C26.4891 50.6304 25.8138 53.6947 26.6789 56.3344L13.3178 45.0015C13.0833 44.8025 12.8976 44.5521 12.7756 44.2697L12.0735 42.6454C11.7949 42.0005 11.8754 41.2569 12.285 40.6862L14.1591 38.0754C13.193 36.7388 12.3906 36.1529 11.7586 35.9952C11.0298 35.8136 10.351 36.1755 9.67423 37.0619C9.00187 37.9427 8.44143 39.2135 7.98059 40.4947C7.51936 41.7771 7.18235 42.9941 6.92229 43.8078C6.83822 44.0708 6.55699 44.2162 6.29397 44.1322C6.03129 44.0481 5.88599 43.7666 5.96963 43.5038C6.21229 42.7446 6.57135 41.4574 7.03914 40.1567C7.50729 38.8552 8.10934 37.4632 8.87895 36.455C9.64439 35.4524 10.6883 34.6976 12.0017 35.0253C12.8965 35.2488 13.8114 35.9603 14.7719 37.2218L16.3567 35.0139C16.7664 34.4434 17.4453 34.1293 18.1453 34.1869L19.9094 34.3317C20.2159 34.357 20.5127 34.4528 20.7762 34.6113L23.8614 36.4677C24.4971 35.6302 25.0985 34.8455 25.6274 34.1951C26.182 33.513 26.6811 32.9457 27.0678 32.6205C27.2792 32.4428 27.595 32.4704 27.7727 32.6818C27.9501 32.8931 27.9225 33.2077 27.7113 33.3854C27.4058 33.6422 26.9603 34.1408 26.4028 34.8263C25.903 35.441 25.3342 36.1825 24.724 36.9859L35.7891 43.6449ZM14.8449 48.3385C14.1721 48.9042 13.0759 49.8889 11.9009 50.8137C10.7293 51.7357 9.40991 52.6543 8.24626 53.0865C7.66569 53.302 7.06414 53.4196 6.51429 53.3038C5.929 53.1803 5.46933 52.8064 5.18878 52.1912C4.92076 51.6034 4.81709 50.803 4.86373 49.7821C4.91079 48.7529 5.1136 47.4548 5.49848 45.8416C5.56262 45.573 5.83246 45.407 6.10102 45.4711C6.36921 45.5353 6.53454 45.8047 6.47072 46.073C6.09412 47.6515 5.90594 48.8832 5.86275 49.8272C5.81925 50.7788 5.92578 51.3959 6.09885 51.7758C6.25961 52.1283 6.47345 52.2736 6.72103 52.3258C7.00373 52.3852 7.39528 52.3361 7.89846 52.1492C8.90389 51.7758 10.1185 50.9445 11.2834 50.0278C12.4444 49.114 13.4895 48.1707 14.2012 47.5723C14.4126 47.3948 14.7272 47.4225 14.9048 47.6338C15.0824 47.845 15.0561 48.1607 14.8449 48.3385ZM39.1679 55.6861C37.0599 58.6226 32.9173 63.1049 32.6715 63.7531C32.3508 63.5711 32.0357 63.3713 31.7294 63.1514C27.0623 59.801 25.9948 53.3021 29.3449 48.6348C32.6953 43.9677 39.1948 42.8994 43.8621 46.2495C44.1683 46.4694 44.4591 46.7033 44.7341 46.9488C44.47 47.1636 43.6152 48.5933 42.5647 50.3395C42.1968 50.0496 41.8401 49.7785 41.5027 49.5363C38.3947 47.3054 34.4897 46.4374 34.3888 46.5635C34.2966 46.692 37.8804 48.0144 40.9919 50.2479C41.3459 50.502 41.7261 50.7811 42.121 51.0764C41.7793 51.6418 41.4225 52.2254 41.0648 52.8006C40.6367 52.4597 40.2216 52.1425 39.8325 51.8631C36.7265 49.6336 34.569 49.2969 34.4695 49.4235C34.3773 49.5521 36.2102 50.3413 39.3216 52.5747C39.7238 52.8634 40.159 53.1849 40.6121 53.5251C40.1148 54.309 39.6219 55.0537 39.1679 55.6861ZM44.7442 52.1564C44.1651 51.6507 43.5746 51.1515 43.0027 50.6888C43.9932 48.9183 44.741 47.416 44.811 47.0209C45.3829 47.5419 45.8852 48.1155 46.3156 48.7296C46.0558 48.674 45.5033 50.2255 44.7442 52.1564ZM42.0215 57.7345C39.8893 60.7047 34.6019 64.2289 34.8646 64.6819C34.1449 64.4705 33.441 64.1781 32.7643 63.803C33.4789 63.4088 37.5802 58.9663 39.6741 56.0494C40.1253 55.4208 40.6143 54.6806 41.1046 53.8991C41.8162 54.4389 42.5564 55.0131 43.2728 55.5709C42.8797 56.3714 42.4617 57.1212 42.0215 57.7345ZM43.579 54.93C42.9119 54.3372 42.2181 53.7396 41.5441 53.188C41.9004 52.6037 42.2516 52.0074 42.5845 51.4272C43.1963 51.8895 43.8327 52.3818 44.461 52.8691C44.1884 53.5454 43.8932 54.2483 43.579 54.93ZM48.1792 55.3374C47.4329 54.6016 46.3831 53.6087 45.2539 52.6052C46.0122 50.8009 46.49 49.254 46.3927 48.8366C47.7015 50.7557 48.317 53.053 48.1792 55.3374ZM46.2468 60.7675C43.6267 64.4172 39.0809 65.8653 34.9914 64.7212C35.8568 64.6325 40.3223 60.8617 42.3817 57.993C42.8186 57.3843 43.2588 56.659 43.6803 55.8875C45.3534 57.1929 46.8316 58.3566 47.3852 58.7344C47.0885 59.438 46.7108 60.121 46.2468 60.7675ZM47.4354 58.6142C46.9559 58.0749 45.5832 56.7323 43.9941 55.3013C44.3423 54.6303 44.6715 53.9368 44.9695 53.2642C46.1912 54.2155 47.3424 55.116 48.1468 55.7325C48.0503 56.7097 47.8154 57.6804 47.4354 58.6142Z" fill="#690606" fill-opacity="0.2"/>
<path d="M143.728 55.4484C145.544 57.5514 148.519 58.5523 151.796 58.2865C155.072 58.0205 157.845 56.5531 159.298 54.1856L159.301 71.7057C159.301 72.0133 159.23 72.3169 159.093 72.5926L158.309 74.1788C157.997 74.8084 157.378 75.2282 156.678 75.2851L153.475 75.5451C153.081 77.1465 153.153 78.1374 153.442 78.7213C153.775 79.3945 154.49 79.678 155.604 79.6206C156.71 79.5635 158.042 79.1686 159.317 78.6912C160.593 78.2132 161.739 77.6828 162.528 77.3547C162.783 77.2487 163.076 77.3691 163.182 77.624C163.288 77.8787 163.167 78.1716 162.912 78.2778C162.177 78.584 160.963 79.143 159.668 79.6277C158.373 80.1128 156.922 80.5543 155.655 80.6197C154.396 80.6846 153.145 80.377 152.545 79.1634C152.136 78.3366 152.087 77.1786 152.428 75.6301L149.719 75.85C149.019 75.9067 148.34 75.5922 147.931 75.0212L146.9 73.5823C146.721 73.3323 146.602 73.0439 146.552 72.7405L145.972 69.1869C144.922 69.244 143.935 69.2931 143.097 69.3106C142.218 69.3289 141.462 69.3154 140.964 69.2309C140.692 69.1847 140.509 68.926 140.555 68.6537C140.601 68.3817 140.859 68.1992 141.131 68.2454C141.525 68.3122 142.193 68.3294 143.076 68.3109C143.868 68.2943 144.802 68.2484 145.809 68.1939L143.728 55.4484ZM160.857 68.3824C161.724 68.5294 163.184 68.7282 164.649 69.0259C166.11 69.3228 167.664 69.7346 168.747 70.3423C169.287 70.6455 169.765 71.0282 170.033 71.5224C170.317 72.0486 170.33 72.641 170.042 73.2529C169.767 73.8376 169.224 74.4344 168.415 75.0594C167.6 75.6893 166.479 76.3745 165 77.1247C164.754 77.2495 164.452 77.1512 164.328 76.9049C164.203 76.6588 164.301 76.3585 164.547 76.2336C165.995 75.4995 167.056 74.8462 167.803 74.2684C168.557 73.6859 168.959 73.2054 169.136 72.8277C169.301 72.4771 169.274 72.22 169.153 71.9974C169.016 71.7435 168.725 71.4767 168.257 71.2139C167.322 70.6888 165.902 70.3004 164.449 70.0053C163.001 69.7111 161.606 69.5245 160.689 69.3689C160.417 69.3226 160.235 69.0648 160.281 68.7926C160.327 68.5205 160.585 68.3364 160.857 68.3824ZM150.724 45.0819C154.327 44.7894 160.425 45.0485 161.078 44.8165C161.147 45.1788 161.198 45.5484 161.229 45.9242C161.694 51.6506 157.429 56.669 151.702 57.134C145.976 57.5986 140.956 53.3338 140.491 47.6074C140.461 47.2317 140.451 46.8586 140.461 46.4901C140.795 46.5525 142.438 46.2793 144.449 45.9507C144.466 46.4188 144.49 46.8662 144.524 47.2801C144.834 51.0934 146.698 54.6326 146.86 54.6279C147.017 54.6151 145.707 51.0269 145.397 47.2092C145.362 46.7749 145.329 46.3045 145.298 45.8122C145.951 45.707 146.627 45.6016 147.297 45.5021C147.314 46.0491 147.34 46.5709 147.379 47.0484C147.688 50.8591 148.827 52.7222 148.988 52.7161C149.146 52.7033 148.562 50.795 148.252 46.9775C148.212 46.4841 148.176 45.9442 148.142 45.3786C149.061 45.2507 149.948 45.1448 150.724 45.0819ZM144.425 43.1133C144.414 43.882 144.415 44.6553 144.432 45.3907C142.442 45.7809 140.812 46.1826 140.466 46.3848C140.493 45.6117 140.605 44.8576 140.795 44.132C140.921 44.3662 142.461 43.7837 144.425 43.1133ZM150.44 41.5807C154.084 41.285 160.192 43.0368 160.368 42.5433C160.672 43.2289 160.904 43.9548 161.056 44.7135C160.293 44.4237 154.252 44.1704 150.674 44.4608C149.902 44.5235 149.022 44.6294 148.108 44.7612C148.06 43.8694 148.019 42.9334 147.98 42.0262C148.845 41.8081 149.687 41.6418 150.44 41.5807ZM147.294 42.2074C147.273 43.0996 147.266 44.0152 147.282 44.8861C146.606 44.9924 145.924 45.1104 145.266 45.2319C145.223 44.4663 145.186 43.6625 145.152 42.8682C145.844 42.6385 146.571 42.4089 147.294 42.2074ZM144.628 38.436C144.55 39.4811 144.472 40.924 144.437 42.4343C142.571 43.0234 141.082 43.6598 140.827 44.004C141.444 41.7644 142.797 39.8089 144.628 38.436ZM150.019 36.3965C154.497 36.0332 158.542 38.5627 160.316 42.4212C159.688 41.8187 153.924 40.8531 150.404 41.1388C149.657 41.1994 148.819 41.333 147.958 41.5107C147.871 39.3903 147.802 37.5104 147.732 36.8438C148.461 36.6148 149.226 36.461 150.019 36.3965ZM147.608 36.8832C147.507 37.5978 147.371 39.5131 147.308 41.6507C146.571 41.8192 145.83 42.0169 145.124 42.2248C145.059 40.6778 145.001 39.2173 144.95 38.2051C145.758 37.6465 146.65 37.1976 147.608 36.8832Z" fill="#690606" fill-opacity="0.2"/>
<path d="M58.0124 8.03445C60.664 8.86459 63.7201 8.14702 66.3643 6.19426C69.008 4.24176 70.5915 1.53289 70.5787 -1.24497L79.8148 13.6429C79.9769 13.9043 80.0767 14.1997 80.1061 14.5058L80.2755 16.2673C80.3426 16.9665 80.0378 17.6495 79.4728 18.0669L76.8875 19.9762C77.3966 21.5448 77.9804 22.3488 78.5333 22.6929C79.1712 23.0895 79.9283 22.9535 80.8446 22.3177C81.7549 21.6859 82.6785 20.6485 83.5104 19.5707C84.3431 18.4919 85.0375 17.4371 85.5349 16.7426C85.6956 16.5181 86.0079 16.4661 86.2324 16.6269C86.4566 16.7876 86.5084 17.1 86.3482 17.3244C85.8841 17.9725 85.1472 19.0873 84.3026 20.1815C83.4574 21.2764 82.4571 22.4163 81.4151 23.1395C80.3788 23.8586 79.1536 24.2565 78.0042 23.5413C77.2213 23.0539 76.569 22.0958 76.0423 20.6004L73.8561 22.215C73.291 22.6322 72.5485 22.7226 71.9 22.4529L70.2655 21.7735C69.9816 21.6553 69.7285 21.473 69.5264 21.2412L67.1603 18.5272C66.2981 19.1291 65.4848 19.6912 64.7818 20.1478C64.0446 20.6266 63.3954 21.0133 62.9275 21.2041C62.6718 21.3083 62.3796 21.1851 62.2754 20.9293C62.1715 20.6737 62.2944 20.3828 62.5499 20.2786C62.9196 20.1279 63.4966 19.7903 64.2376 19.309C64.902 18.8775 65.671 18.3464 66.4984 17.7692L58.0124 8.03445ZM79.386 9.99824C80.2 9.66647 81.5456 9.06587 82.9478 8.54655C84.3459 8.02879 85.8836 7.55968 87.1237 7.50565C87.7425 7.47875 88.3511 7.55153 88.8388 7.83062C89.3579 8.12785 89.6806 8.62481 89.7587 9.29643C89.8332 9.93818 89.6862 10.7317 89.3283 11.689C88.9675 12.654 88.376 13.8271 87.5143 15.2443C87.3708 15.4802 87.063 15.5553 86.8271 15.4119C86.5916 15.2684 86.517 14.9612 86.6601 14.7255C87.5032 13.3388 88.0605 12.2245 88.3914 11.3393C88.725 10.447 88.8131 9.827 88.765 9.41235C88.7202 9.0275 88.5613 8.8236 88.3417 8.69787C88.0909 8.55455 87.7032 8.48109 87.167 8.50444C86.0954 8.55112 84.6843 8.96927 83.2942 9.48409C81.9086 9.99727 80.6244 10.5741 79.7634 10.9251C79.5077 11.0291 79.2168 10.9061 79.1126 10.6505C79.0085 10.3949 79.1305 10.1026 79.386 9.99824ZM58.4939 -4.46254C61.4017 -6.61003 66.7204 -9.60382 67.1534 -10.1453C67.4027 -9.87357 67.6413 -9.58668 67.8653 -9.28337C71.2782 -4.66181 70.2988 1.85092 65.6774 5.26416C61.0558 8.67709 54.5423 7.69824 51.1291 3.07689C50.9051 2.77363 50.7002 2.46175 50.5139 2.14361C50.8312 2.02034 52.0836 0.922105 53.6196 -0.41714C53.8807 -0.0283208 54.1369 0.339214 54.3836 0.673293C56.6565 3.75075 60.1064 5.77581 60.2411 5.68676C60.3684 5.59277 57.3637 3.23388 55.0883 0.152891C54.8294 -0.197644 54.5533 -0.579991 54.2681 -0.982292C54.7669 -1.41545 55.2857 -1.86126 55.8027 -2.29894C56.1054 -1.84301 56.4031 -1.41364 56.6876 -1.02831C58.959 2.04714 60.909 3.03007 61.0425 2.94006C61.1697 2.84607 59.6677 1.53222 57.3923 -1.54871C57.0982 -1.94688 56.7827 -2.38654 56.456 -2.8494C57.1699 -3.4427 57.8677 -4.00006 58.4939 -4.46254ZM52.1032 -2.8155C52.499 -2.15645 52.9078 -1.5 53.3099 -0.884085C51.8237 0.496746 50.6508 1.69692 50.4628 2.05143C50.0786 1.38 49.7766 0.679904 49.5555 -0.0367614C49.7857 0.0960021 50.788 -1.21098 52.1032 -2.8155ZM56.4071 -7.28817C59.3483 -9.46021 65.4624 -11.1907 65.3514 -11.7026C65.9714 -11.2804 66.5515 -10.786 67.0804 -10.2212C66.2793 -10.0655 61.0121 -7.09682 58.1237 -4.96372C57.5013 -4.50401 56.8086 -3.94981 56.1021 -3.35652C55.5906 -4.08872 55.0625 -4.86253 54.5519 -5.61333C55.1718 -6.25443 55.7999 -6.8397 56.4071 -7.28817ZM54.0637 -5.09739C54.5166 -4.32839 54.9934 -3.54667 55.4654 -2.81472C54.947 -2.36804 54.4297 -1.90835 53.9347 -1.4584C53.4944 -2.08628 53.0399 -2.75018 52.5916 -3.40684C53.0587 -3.96679 53.5554 -4.54507 54.0637 -5.09739ZM49.8108 -6.89756C50.2951 -5.96819 50.9894 -4.70093 51.756 -3.39913C50.4803 -1.91478 49.5506 -0.589358 49.515 -0.162259C48.8587 -2.39051 48.9783 -4.76579 49.8108 -6.89756ZM53.3171 -11.472C56.9313 -14.141 61.7021 -14.1234 65.2428 -11.779C64.3919 -11.9602 58.9844 -9.74267 56.1437 -7.64481C55.541 -7.19969 54.8994 -6.64454 54.2613 -6.03971C53.0698 -7.7958 52.0203 -9.35712 51.6095 -9.88672C52.1079 -10.4652 52.677 -10.9992 53.3171 -11.472ZM51.5248 -9.78773C51.8156 -9.12726 52.7097 -7.428 53.7827 -5.57819C53.2453 -5.04657 52.719 -4.48763 52.2289 -3.93902C51.3583 -5.21942 50.5392 -6.42993 49.963 -7.26364C50.3548 -8.164 50.8765 -9.0157 51.5248 -9.78773Z" fill="#690606" fill-opacity="0.2"/>
<path d="M72.2616 56.7981C75.0389 56.8782 77.786 55.359 79.8017 52.7624C81.817 50.1663 82.6068 47.1295 81.8412 44.4592L94.7679 56.2853C94.9948 56.4929 95.171 56.7502 95.2823 57.0369L95.9229 58.6864C96.1771 59.3413 96.0688 60.0813 95.6382 60.6363L93.6674 63.175C94.5827 64.5469 95.3626 65.1624 95.9882 65.3437C96.7096 65.5525 97.4016 65.2164 98.1111 64.356C98.816 63.501 99.4237 62.2521 99.9323 60.9891C100.441 59.7249 100.824 58.5214 101.114 57.718C101.208 57.4583 101.495 57.3236 101.754 57.4175C102.014 57.5114 102.148 57.7981 102.055 58.0575C101.784 58.8071 101.377 60.08 100.86 61.3622C100.344 62.6453 99.69 64.0137 98.8831 64.9923C98.0806 65.9654 97.0091 66.6806 95.7089 66.3038C94.8231 66.047 93.9356 65.3016 93.0231 64.005L91.3565 66.1519C90.9258 66.7066 90.2355 66.995 89.5382 66.9112L87.7807 66.7004C87.4755 66.6636 87.1824 66.5567 86.925 66.3885L83.9116 64.4176C83.245 65.2307 82.6146 65.9923 82.0617 66.6224C81.4819 67.2832 80.9618 67.8314 80.5632 68.1418C80.3453 68.3115 80.0307 68.2721 79.861 68.0542C79.6917 67.8363 79.7311 67.523 79.9489 67.3534C80.2638 67.1081 80.7277 66.6267 81.3104 65.9625C81.833 65.367 82.4292 64.6474 83.0691 63.8674L72.2616 56.7981ZM93.367 52.8934C94.0605 52.3533 95.1929 51.4104 96.4018 50.5304C97.6071 49.6529 98.9601 48.7845 100.139 48.3962C100.727 48.2026 101.333 48.1076 101.878 48.244C102.458 48.3894 102.904 48.7803 103.161 49.4055C103.407 50.003 103.48 50.8067 103.395 51.8252C103.31 52.8518 103.058 54.1414 102.613 55.7391C102.539 56.0051 102.263 56.1609 101.997 56.0868C101.732 56.0125 101.577 55.7371 101.65 55.4713C102.086 53.9081 102.32 52.6843 102.399 51.7426C102.478 50.7933 102.395 50.1726 102.236 49.7865C102.088 49.4282 101.88 49.275 101.635 49.2136C101.354 49.1436 100.961 49.178 100.452 49.3459C99.4328 49.6813 98.1879 50.4664 96.9894 51.3389C95.7949 52.2085 94.7152 53.1119 93.9815 53.6832C93.7637 53.8526 93.4503 53.8131 93.2807 53.5954C93.1112 53.3776 93.1494 53.0631 93.367 52.8934ZM69.3367 44.6387C71.5534 41.7832 75.8612 37.4595 76.1312 36.8209C76.4448 37.0149 76.7522 37.2264 77.05 37.4576C81.5882 40.9807 82.4112 47.515 78.8884 52.0534C75.3652 56.5915 68.8303 57.4153 64.2919 53.8925C63.9941 53.6613 63.7124 53.4167 63.4467 53.161C63.7188 52.9563 64.6265 51.5596 65.7418 49.8541C66.0986 50.1576 66.4448 50.4419 66.7729 50.6965C69.795 53.0425 73.6648 54.0563 73.7703 53.9341C73.8673 53.8091 70.3356 52.3532 67.31 50.0046C66.9658 49.7374 66.5964 49.4442 66.2128 49.1343C66.5755 48.5821 66.954 48.0124 67.3329 47.4509C67.7479 47.8077 68.1509 48.1403 68.5293 48.434C71.5494 50.7784 73.6928 51.1958 73.7969 51.073C73.8939 50.948 72.0919 50.0906 69.0664 47.742C68.6754 47.4385 68.2526 47.1009 67.8125 46.7439C68.3389 45.9793 68.8594 45.2536 69.3367 44.6387ZM63.632 47.9567C64.1917 48.4838 64.7631 49.0048 65.3172 49.4886C64.261 51.2207 63.4574 52.6939 63.3726 53.0861C62.8207 52.544 62.3402 51.952 61.9331 51.3221C62.1907 51.3875 62.801 49.8577 63.632 47.9567ZM66.562 42.4847C68.8041 39.5966 74.22 36.2731 73.9744 35.8106C74.6857 36.0488 75.3781 36.3674 76.0402 36.7677C75.3114 37.1348 71.0464 41.4203 68.8446 44.2566C68.3701 44.8679 67.8536 45.5891 67.3344 46.3518C66.6436 45.7857 65.9254 45.184 65.2304 44.5998C65.6533 43.8146 66.0991 43.081 66.562 42.4847ZM64.9003 45.2288C65.5448 45.8462 66.2156 46.4693 66.8685 47.0459C66.4905 47.6164 66.1173 48.1991 65.7628 48.7664C65.1688 48.2814 64.5513 47.7656 63.9418 47.2551C64.2395 46.5895 64.5609 45.8982 64.9003 45.2288ZM60.3187 44.6491C61.0369 45.4123 62.0487 46.4439 63.1395 47.4891C62.3141 49.2637 61.7786 50.7915 61.8601 51.2123C60.6242 49.2455 60.0953 46.9267 60.3187 44.6491ZM62.4534 39.2953C65.2085 35.7464 69.8055 34.4698 73.8491 35.7665C72.981 35.8228 68.3773 39.4233 66.2117 42.2128C65.7523 42.8047 65.2852 43.513 64.835 44.2682C63.2121 42.9009 61.7786 41.6826 61.2396 41.2842C61.5624 40.5923 61.9655 39.9239 62.4534 39.2953ZM61.1849 41.4025C61.6438 41.9594 62.9652 43.3525 64.4995 44.8422C64.1264 45.4996 63.7714 46.1802 63.4484 46.8412C62.2632 45.8448 61.1466 44.9017 60.3659 44.2555C60.4989 43.2826 60.7702 42.3213 61.1849 41.4025Z" fill="#690606" fill-opacity="0.2"/>
</g>
<defs>
<clipPath id="clip0_86_13463">
<rect width="200" height="50" fill="white"/>
</clipPath>
</defs>
</svg>
